<svg width="19" height="19" viewBox="0 0 19 19" fill="none" xmlns="http://www.w3.org/2000/svg">
<path d="M9.19985 1.85785C11.6563 1.85785 11.9474 1.86723 12.9174 1.91149C13.8144 1.9524 14.3016 2.10227 14.6258 2.22827C15.0552 2.39516 15.3617 2.59452 15.6836 2.91644C16.0056 3.2384 16.2049 3.54487 16.3718 3.9743C16.4978 4.29848 16.6477 4.78562 16.6886 5.68261C16.7328 6.65271 16.7422 6.9437 16.7422 9.40016C16.7422 11.8567 16.7328 12.1477 16.6886 13.1178C16.6477 14.0148 16.4978 14.5019 16.3718 14.8261C16.2049 15.2555 16.0056 15.562 15.6837 15.884C15.3617 16.2059 15.0552 16.4052 14.6258 16.5721C14.3016 16.6982 13.8144 16.848 12.9174 16.8889C11.9475 16.9331 11.6566 16.9426 9.19985 16.9426C6.74316 16.9426 6.45225 16.9331 5.48225 16.8889C4.58525 16.848 4.09812 16.6982 3.77393 16.5721C3.3445 16.4052 3.03803 16.2059 2.7161 15.884C2.39419 15.562 2.19479 15.2555 2.0279 14.8261C1.9019 14.5019 1.75203 14.0148 1.71112 13.1178C1.66686 12.1477 1.65748 11.8567 1.65748 9.40016C1.65748 6.9437 1.66686 6.65271 1.71112 5.68261C1.75203 4.78562 1.9019 4.29848 2.0279 3.9743C2.19479 3.54487 2.39415 3.2384 2.7161 2.91648C3.03803 2.59452 3.3445 2.39516 3.77393 2.22827C4.09812 2.10227 4.58525 1.9524 5.48225 1.91149C6.45235 1.86723 6.74334 1.85785 9.19985 1.85785ZM9.19985 0.200195C6.70128 0.200195 6.38797 0.210786 5.40669 0.255559C4.42746 0.300222 3.75867 0.455759 3.17348 0.683165C2.5685 0.918278 2.05543 1.23285 1.54394 1.74431C1.03248 2.25581 0.717902 2.76887 0.482825 3.37385C0.255381 3.95904 0.0998443 4.62782 0.0551806 5.60705C0.0104076 6.58833 -0.000183105 6.90163 -0.000183105 9.40016C-0.000183105 11.8988 0.0104076 12.2121 0.0551806 13.1933C0.0998443 14.1726 0.255381 14.8414 0.482825 15.4266C0.717902 16.0315 1.03248 16.5446 1.54394 17.0561C2.05543 17.5676 2.5685 17.8821 3.17348 18.1172C3.75867 18.3447 4.42746 18.5001 5.40669 18.5448C6.38797 18.5896 6.70128 18.6002 9.19985 18.6002C11.6984 18.6002 12.0118 18.5896 12.993 18.5448C13.9722 18.5001 14.6411 18.3447 15.2263 18.1172C15.8312 17.8821 16.3443 17.5676 16.8557 17.0561C17.3672 16.5446 17.6818 16.0315 17.9169 15.4266C18.1444 14.8414 18.2998 14.1726 18.3445 13.1933C18.3893 12.2121 18.3999 11.8988 18.3999 9.40016C18.3999 6.90163 18.3893 6.58833 18.3445 5.60705C18.2998 4.62782 18.1444 3.95904 17.9169 3.37385C17.6818 2.76887 17.3672 2.25581 16.8557 1.74431C16.3443 1.23285 15.8312 0.918278 15.2263 0.683165C14.6411 0.455759 13.9722 0.300222 12.993 0.255559C12.0118 0.210786 11.6984 0.200195 9.19985 0.200195Z" fill="black"/>
<path d="M9.20528 4.68164C6.59604 4.68164 4.4809 6.79678 4.4809 9.40597C4.4809 12.0152 6.59604 14.1303 9.20528 14.1303C11.8144 14.1303 13.9296 12.0152 13.9296 9.40597C13.9296 6.79678 11.8144 4.68164 9.20528 4.68164ZM9.20528 12.4727C7.51155 12.4727 6.13856 11.0996 6.13856 9.40597C6.13856 7.71229 7.51155 6.3393 9.20528 6.3393C10.8989 6.3393 12.2719 7.71229 12.2719 9.40597C12.2719 11.0996 10.8989 12.4727 9.20528 12.4727Z" fill="black"/>
<path d="M15.2202 4.49172C15.2202 5.10141 14.7258 5.5957 14.1161 5.5957C13.5064 5.5957 13.0121 5.10141 13.0121 4.49172C13.0121 3.88199 13.5064 3.3877 14.1161 3.3877C14.7258 3.3877 15.2202 3.88199 15.2202 4.49172Z" fill="black"/>
</svg>
