<svg width="52" height="32" viewBox="0 0 52 32" fill="none" xmlns="http://www.w3.org/2000/svg">
<g clip-path="url(#clip0_172_5)">
<path d="M41.695 15.92L46.5223 24.9734H51.27L41.695 7.04004L32.12 24.9734H36.8677L41.695 15.92Z" fill="white"/>
<path d="M25.9798 20.7732L25.9931 7.01318H21.8024V24.9732H29.8788L32.12 20.7732H25.9798Z" fill="white"/>
<path d="M10.0391 6.37354C8.14482 6.37091 6.29229 6.93326 4.71594 7.98944C3.1396 9.04563 1.91028 10.5482 1.18354 12.307C0.456793 14.0658 0.265283 16.0018 0.633238 17.8701C1.00119 19.7384 1.91208 21.4549 3.25063 22.8026C4.58919 24.1502 6.29527 25.0684 8.153 25.4409C10.0107 25.8134 11.9366 25.6236 13.687 24.8954C15.4374 24.1671 16.9336 22.9333 17.9863 21.3499C19.039 19.7665 19.6009 17.9048 19.6009 16.0002C19.6009 13.4494 18.5939 11.0028 16.8011 9.19784C15.0083 7.39287 12.5763 6.37708 10.0391 6.37354ZM10.0391 21.1869C9.01826 21.1895 8.01955 20.8876 7.16944 20.3193C6.31933 19.7509 5.65605 18.9418 5.26355 17.9943C4.87106 17.0468 4.767 16.0035 4.96456 14.9965C5.16211 13.9895 5.65239 13.0641 6.37334 12.3374C7.09428 11.6107 8.01347 11.1154 9.01455 10.9142C10.0156 10.713 11.0536 10.8149 11.997 11.2071C12.9404 11.5993 13.7469 12.264 14.3144 13.1173C14.8818 13.9705 15.1847 14.9738 15.1847 16.0002C15.1812 17.377 14.6347 18.6962 13.6652 19.6685C12.6956 20.6409 11.382 21.1869 10.0126 21.1869H10.0391Z" fill="white"/>
</g>
<defs>
<clipPath id="clip0_172_5">
<rect width="51.7209" height="32" fill="white"/>
</clipPath>
</defs>
</svg>
