<svg width="22" height="18" viewBox="0 0 22 18" fill="none" xmlns="http://www.w3.org/2000/svg">
<path fill-rule="evenodd" clip-rule="evenodd" d="M21.2591 2.53046C20.4923 2.87114 19.667 3.10058 18.8014 3.20417C19.685 2.67438 20.3637 1.83589 20.6827 0.836793C19.8568 1.32765 18.9397 1.68293 17.9657 1.87552C17.1849 1.04398 16.0718 0.523926 14.8418 0.523926C12.4786 0.523926 10.5625 2.44007 10.5625 4.80328C10.5625 5.1384 10.6007 5.46517 10.6737 5.77874C7.11674 5.60075 3.96371 3.89666 1.85289 1.30749C1.4844 1.93948 1.27373 2.67439 1.27373 3.45864C1.27373 4.94304 2.02809 6.25292 3.17737 7.02049C2.47515 6.99824 1.81603 6.80565 1.23827 6.48514V6.53867C1.23827 8.61264 2.71432 10.3417 4.67079 10.736C4.31204 10.8333 3.93381 10.8862 3.54377 10.8862C3.26775 10.8862 2.99938 10.859 2.73796 10.809C3.28235 12.5089 4.86338 13.7465 6.73573 13.7813C5.27151 14.9284 3.42627 15.6132 1.42112 15.6132C1.07488 15.6132 0.734203 15.5931 0.39978 15.5527C2.29368 16.7668 4.54286 17.4759 6.95961 17.4759C14.8307 17.4759 19.1351 10.955 19.1351 5.30039C19.1351 5.11475 19.1316 4.92983 19.1226 4.74697C19.9597 4.14209 20.6855 3.38842 21.2591 2.53046Z" fill="black"/>
</svg>
