<svg width="25" height="16" viewBox="0 0 25 16" fill="none" xmlns="http://www.w3.org/2000/svg">
<path fill-rule="evenodd" clip-rule="evenodd" d="M22.8919 1.22495C23.2646 1.57971 23.5331 2.02121 23.6707 2.50549C24.4634 5.54286 24.2802 10.3399 23.6862 13.4945C23.5485 13.9788 23.28 14.4203 22.9073 14.775C22.5346 15.1298 22.0708 15.3854 21.5621 15.5164C19.6996 16 12.2037 16 12.2037 16C12.2037 16 4.70769 16 2.84524 15.5164C2.3365 15.3854 1.87269 15.1298 1.50001 14.775C1.12734 14.4203 0.858799 13.9788 0.721132 13.4945C-0.0761784 10.4703 0.14239 5.67033 0.705742 2.52015C0.843405 2.03587 1.11195 1.59436 1.48463 1.2396C1.8573 0.884844 2.3211 0.629212 2.82985 0.498172C4.6923 0.0146484 12.1882 0 12.1882 0C12.1882 0 19.6842 0 21.5467 0.483515C22.0554 0.614564 22.5192 0.870196 22.8919 1.22495ZM16.0209 7.99999L9.80251 11.4285V4.57142L16.0209 7.99999Z" fill="black"/>
</svg>
